<svg width="107.07mm" height="69.325mm" version="1.1" viewBox="0 0 107.07 69.325" xmlns="http://www.w3.org/2000/svg">
 <g transform="translate(-248.14 -91.039)">
  <text x="83.32753" y="144.58189" fill="#000000" font-family="Arial" font-size="8.7233px" letter-spacing="0px" stroke-width=".2726" word-spacing="0px" style="line-height:1.25" xml:space="preserve"><tspan x="83.32753" y="152.43942" fill="#ff4141" font-family="'Leelawadee UI'" font-size="12.982px" stroke-width=".2726"/></text>
  <path d="m265.58 100.69c-4.2927 0-7.7484 3.4557-7.7484 7.7484v34.503c0 4.2927 3.4557 7.7489 7.7484 7.7489h32.503c4.2927 0 7.7489-3.4562 7.7489-7.7489v-0.23306h-1.0154c-0.23468 3.9064-3.4559 6.982-7.4233 6.982h-31.123c-4.121 0-7.4388-3.3178-7.4388-7.4388v-33.123c0-4.121 3.3179-7.4383 7.4388-7.4383h31.123c3.9537 0 7.1663 3.054 7.4207 6.9412h1.018v-0.19275c0-4.2927-3.4562-7.7484-7.7489-7.7484z" fill="#ee7623" opacity=".99" stroke="#ee7623" stroke-linecap="round" stroke-opacity=".99216" stroke-width="1.253"/>
  <g transform="translate(9.4911 -5.3346)" fill="#07192c">
   <path d="m279.04 141.28h-2.0474v-9.0897h2.0474z"/>
   <path d="m284.3 141.2c-0.2958 0.15635-0.74162 0.23453-1.3375 0.23453-1.4114 0-2.1171-0.73317-2.1171-2.1995v-2.9728h-1.0522v-1.4769h1.0522v-1.9714h1.9967v1.9714h1.4579v1.4769h-1.4579v2.6242c0 0.67613 0.26834 1.0142 0.80502 1.0142 0.21129 0 0.42892-0.0613 0.65288-0.18382z"/>
   <path d="m290.82 141.28h-1.8953v-0.93179h-0.0254q-0.65289 1.0902-1.9333 1.0902-0.94447 0-1.4896-0.53245-0.53878-0.53879-0.53878-1.4325 0-1.8889 2.2376-2.1805l1.7622-0.23453q0-1.0649-1.1536-1.0649-1.16 0-2.2059 0.69091v-1.5086q0.41836-0.21552 1.141-0.38033 0.72895-0.1648 1.3248-0.1648 2.7764 0 2.7764 2.77zm-1.8826-2.6369v-0.43737l-1.179 0.15213q-0.97616 0.12677-0.97616 0.88108 0 0.34229 0.23453 0.56414 0.24087 0.21552 0.64655 0.21552 0.56414 0 0.91911-0.38666 0.35497-0.393 0.35497-0.98884z"/>
   <path d="m298.05 141.28h-1.9967v-0.98884h-0.0317q-0.74163 1.1473-1.984 1.1473-2.2566 0-2.2566-2.732v-3.9173h1.9967v3.7398q0 1.3755 1.0903 1.3755 0.53879 0 0.86206-0.37398 0.32328-0.38032 0.32328-1.0269v-3.7145h1.9967zm-0.8177-9.5651-1.984 2.0474h-1.4452l1.6481-2.0474z"/>
   <path d="m301.38 141.28v-9.0897h3.2201q4.8428 0 4.8428 4.4308 0 2.1235-1.3248 3.3912-1.3184 1.2677-3.518 1.2677zm2.0474-7.4226v5.7619h1.0142q1.3311 0 2.0854-0.79868 0.76064-0.79867 0.76064-2.1742 0-1.2994-0.7543-2.0411-0.74797-0.74796-2.1044-0.74796z"/>
   <path d="m315.63 141.28h-1.8953v-0.93179h-0.0254q-0.65289 1.0902-1.9333 1.0902-0.94447 0-1.4896-0.53245-0.53879-0.53879-0.53879-1.4325 0-1.8889 2.2376-2.1805l1.7622-0.23453q0-1.0649-1.1536-1.0649-1.16 0-2.2059 0.69091v-1.5086q0.41836-0.21552 1.141-0.38033 0.72895-0.1648 1.3248-0.1648 2.7764 0 2.7764 2.77zm-1.8826-2.6369v-0.43737l-1.179 0.15213q-0.97616 0.12677-0.97616 0.88108 0 0.34229 0.23453 0.56414 0.24088 0.21552 0.64655 0.21552 0.56414 0 0.91911-0.38666 0.35497-0.393 0.35497-0.98884z"/>
   <path d="m323.05 141.28h-2.003v-0.89376h-0.0254q-0.68458 1.0522-2.0094 1.0522-1.217 0-1.9587-0.85572-0.74162-0.86206-0.74162-2.4024 0-1.61 0.81769-2.5798t2.1425-0.96982q1.2551 0 1.7495 0.90009h0.0254v-3.8603h2.003zm-1.965-3.1567v-0.48808q0-0.63387-0.36764-1.0522-0.36765-0.41836-0.95714-0.41836-0.66557 0-1.0396 0.52611-0.37398 0.51978-0.37398 1.4326 0 0.85572 0.3613 1.3184 0.36131 0.46273 1.0015 0.46273 0.60851 0 0.98883-0.48808 0.38666-0.48808 0.38666-1.2931z"/>
   <path d="m327.3 141.44q-1.6227 0-2.5545-0.90643-0.92545-0.91277-0.92545-2.4721 0-1.61 0.96348-2.5165 0.96348-0.91277 2.6052-0.91277 1.6164 0 2.5355 0.91277 0.91911 0.90643 0.91911 2.4024 0 1.6164-0.95081 2.5545-0.94446 0.93812-2.5925 0.93812zm0.0507-5.2738q-0.70993 0-1.1029 0.48808t-0.393 1.3818q0 1.8699 1.5086 1.8699 1.4389 0 1.4389-1.9206 0-1.8192-1.4516-1.8192z"/>
   <path d="m331.72 141.11v-1.6227q0.49442 0.29791 0.9825 0.4437 0.49441 0.14579 0.93178 0.14579 0.53245 0 0.83671-0.14579 0.3106-0.14579 0.3106-0.4437 0-0.19016-0.13945-0.31694-0.13946-0.12677-0.36131-0.22185-0.21552-0.0951-0.4754-0.17115-0.25989-0.0761-0.50076-0.17114-0.38666-0.14579-0.68458-0.3106-0.29158-0.17114-0.49441-0.393-0.1965-0.22185-0.30426-0.51343-0.10142-0.29158-0.10142-0.69092 0-0.54513 0.23453-0.93812 0.24087-0.393 0.63387-0.64021 0.39934-0.25355 0.90643-0.36765 0.51344-0.12043 1.0649-0.12043 0.43103 0 0.87474 0.0697 0.44371 0.0634 0.87474 0.19016v1.5466q-0.38032-0.22186-0.81769-0.32962-0.43103-0.11409-0.84938-0.11409-0.1965 0-0.37399 0.038-0.17114 0.0317-0.30425 0.10142-0.13312 0.0634-0.20918 0.17114-0.0761 0.10142-0.0761 0.23453 0 0.17749 0.1141 0.30426 0.1141 0.12678 0.29792 0.22186 0.18382 0.0887 0.40568 0.1648 0.22819 0.0697 0.45004 0.14579 0.39934 0.13945 0.72261 0.30426 0.32328 0.1648 0.55147 0.38666 0.23453 0.22185 0.35497 0.51977 0.12677 0.29792 0.12677 0.70994 0 0.57682-0.25355 0.98883-0.24721 0.40568-0.66556 0.66556-0.41202 0.25355-0.95714 0.36765-0.53879 0.12043-1.122 0.12043-1.0712 0-1.984-0.32961z"/>
   <path d="m258.09 128.49v-9.0897h3.3088q1.5213 0 2.339 0.5578 0.81769 0.55781 0.81769 1.572 0 0.73529-0.50075 1.2868-0.49442 0.55147-1.2677 0.76698v0.0254q0.96982 0.12043 1.5466 0.71627 0.58316 0.59584 0.58316 1.4516 0 1.2487-0.89376 1.984-0.89375 0.72895-2.4404 0.72895zm2.0474-7.5811v2.1552h0.90009q0.63387 0 0.99517-0.30425 0.36765-0.3106 0.36765-0.84939 0-1.0015-1.4959-1.0015zm0 3.6764v2.396h1.1093q0.70993 0 1.1093-0.32961 0.40567-0.32961 0.40567-0.90009 0-0.54513-0.39933-0.85573-0.393-0.31059-1.1029-0.31059z"/>
   <path d="m268.78 128.65q-1.6227 0-2.5545-0.90643-0.92545-0.91278-0.92545-2.4721 0-1.61 0.96349-2.5165 0.96348-0.91278 2.6052-0.91278 1.6164 0 2.5355 0.91278 0.91911 0.90643 0.91911 2.4024 0 1.6164-0.9508 2.5545-0.94446 0.93813-2.5925 0.93813zm0.0507-5.2738q-0.70994 0-1.1029 0.48808-0.39299 0.48808-0.39299 1.3818 0 1.8699 1.5086 1.8699 1.4389 0 1.4389-1.9206 0-1.8192-1.4516-1.8192z"/>
   <path d="m276.18 128.65q-1.6227 0-2.5545-0.90643-0.92545-0.91278-0.92545-2.4721 0-1.61 0.96348-2.5165 0.96348-0.91278 2.6052-0.91278 1.6164 0 2.5355 0.91278 0.91911 0.90643 0.91911 2.4024 0 1.6164-0.95081 2.5545-0.94446 0.93813-2.5925 0.93813zm0.0507-5.2738q-0.70993 0-1.1029 0.48808t-0.393 1.3818q0 1.8699 1.5086 1.8699 1.4389 0 1.4389-1.9206 0-1.8192-1.4516-1.8192z"/>
   <path d="m284.42 128.42c-0.2958 0.15635-0.74163 0.23453-1.3375 0.23453-1.4114 0-2.1171-0.73318-2.1171-2.1995v-2.9728h-1.0522v-1.4769h1.0522v-1.9713h1.9967v1.9713h1.4579v1.4769h-1.4579v2.6242c0 0.67613 0.26834 1.0142 0.80502 1.0142 0.21129 0 0.42891-0.0613 0.65288-0.18383z"/>
   <path d="m289.93 128.26q-0.67824 0.393-1.9587 0.393-1.4959 0-2.4214-0.90643-0.92544-0.90644-0.92544-2.339 0-1.6544 0.98883-2.6052 0.99518-0.95715 2.6559-0.95715 1.1473 0 1.6607 0.30426v1.6988q-0.62753-0.46906-1.4008-0.46906-0.86206 0-1.3692 0.50709-0.50076 0.50076-0.50076 1.3882 0 0.86206 0.48175 1.3565 0.48173 0.48808 1.3248 0.48808 0.74797 0 1.4642-0.46907z"/>
   <path d="m296.65 128.49h-1.8953v-0.93179h-0.0254q-0.65289 1.0903-1.9333 1.0903-0.94447 0-1.4896-0.53245-0.53879-0.53879-0.53879-1.4326 0-1.8889 2.2376-2.1805l1.7622-0.23454q0-1.0649-1.1536-1.0649-1.16 0-2.2059 0.69092v-1.5086q0.41836-0.21551 1.141-0.38032 0.72895-0.16481 1.3248-0.16481 2.7763 0 2.7763 2.77zm-1.8826-2.6369v-0.43737l-1.179 0.15213q-0.97616 0.12677-0.97616 0.88107 0 0.34229 0.23453 0.56415 0.24087 0.21551 0.64655 0.21551 0.56415 0 0.91911-0.38666 0.35497-0.393 0.35497-0.98883z"/>
   <path d="m308.03 128.49h-1.9967v-3.7018q0-1.4135-1.0395-1.4135-0.49442 0-0.80501 0.42469-0.3106 0.42469-0.3106 1.0586v3.6321h-2.003v-3.7398q0-1.3755-1.0205-1.3755-0.51343 0-0.82403 0.40567-0.30425 0.40568-0.30425 1.1029v3.6067h-2.003v-6.4908h2.003v1.0142h0.0254q0.3106-0.51977 0.8684-0.84304 0.56415-0.32962 1.2297-0.32962 1.3755 0 1.8826 1.2107 0.74163-1.2107 2.1805-1.2107 2.1171 0 2.1171 2.6116z"/>
   <path d="m310.58 127.74h-0.0254v3.7398h-2.003v-9.4764h2.003v0.97616h0.0254q0.74163-1.1346 2.0854-1.1346 1.2614 0 1.946 0.86841 0.69092 0.86206 0.69092 2.3516 0 1.6227-0.80502 2.6052-0.79867 0.9825-2.1298 0.9825-1.1726 0-1.7875-0.91277zm-0.0571-2.6622v0.51977q0 0.6719 0.35497 1.0966 0.35497 0.4247 0.93179 0.4247 0.68458 0 1.0586-0.52612 0.38032-0.53245 0.38032-1.5023 0-1.7114-1.3311-1.7114-0.61486 0-1.0079 0.46906-0.38666 0.46273-0.38666 1.2297z"/>
   <path d="m323.93 128.58h-7.7599v-0.88793h7.7599z"/>
  </g>
 </g>
</svg>
